<svg width="240" height="240" viewBox="0 0 240 240" fill="none" xmlns="http://www.w3.org/2000/svg">
<rect width="240" height="240" fill="#D9D9D9"/>
<path d="M227 123C227 123 159.772 118.778 95.0152 152.884C95.2649 150.226 95.2871 147.719 95.0607 145.398C91.753 111.494 100.473 99.3908 150.811 113.464L110.216 81.5291C166.507 110.216 167.461 91.0655 227 123Z" fill="#D9D9D9"/>
<path d="M40.9007 54.4068C37.5821 118.108 96.4045 48.2648 125.442 9C79.9053 132.949 65.8374 88.5194 15.5 226C85.7274 114.128 227 123 227 123C167.461 91.0655 166.507 110.216 110.216 81.5291L150.811 113.464C100.473 99.3908 91.753 111.494 95.0607 145.398C97.2257 167.59 76.6578 206.843 51.7597 232C103.721 179.498 142.15 164.342 208.726 160.553" stroke="black" stroke-width="10" stroke-linecap="square" stroke-linejoin="bevel"/>
</svg>
